<svg width="437" height="197" viewBox="0 0 437 197" fill="none" xmlns="http://www.w3.org/2000/svg">
<path d="M39.9527 14.25C39.4194 17.5833 39.0194 20.45 38.7527 22.85L37.8527 30.65C37.3527 35.0833 36.9861 38.5833 36.7527 41.15C36.5194 43.7167 36.4027 45.8 36.4027 47.4C36.4027 48.2667 36.4861 48.9333 36.6527 49.4C36.8194 49.8333 37.1861 50.05 37.7527 50.05C38.3861 50.05 39.0194 49.65 39.6527 48.85C40.3194 48.05 40.8861 46.8333 41.3527 45.2L42.8027 45.5C42.6361 46.4333 42.2694 47.45 41.7027 48.55C41.1694 49.65 40.4361 50.6 39.5027 51.4C38.6027 52.1667 37.5361 52.55 36.3027 52.55C35.0027 52.55 34.0361 52.15 33.4027 51.35C32.7694 50.55 32.4527 49.45 32.4527 48.05C32.4527 46.25 32.7027 44.1 33.2027 41.6H33.0527C31.8194 45.7667 30.3861 48.6333 28.7527 50.2C27.1527 51.7667 25.4694 52.55 23.7027 52.55C21.5027 52.55 19.8194 51.6667 18.6527 49.9C17.5194 48.1 16.9527 45.8167 16.9527 43.05C16.9527 39.75 17.5027 36.85 18.6027 34.35C19.7027 31.85 21.3361 29.9167 23.5027 28.55C25.7027 27.15 28.3694 26.45 31.5027 26.45C32.5694 26.45 33.5027 26.5167 34.3027 26.65L35.0527 20.45C35.2194 19.2167 35.4027 18.2 35.6027 17.4L31.9527 17.6L32.1527 15.6C34.1527 15.6 35.5861 15.4833 36.4527 15.25C37.3194 15.0167 38.0027 14.6833 38.5027 14.25H39.9527ZM30.6527 28.25C28.4527 28.25 26.6527 28.95 25.2527 30.35C23.8527 31.75 22.8361 33.5167 22.2027 35.65C21.5694 37.75 21.2527 39.9333 21.2527 42.2C21.2527 44.6667 21.5194 46.6167 22.0527 48.05C22.6194 49.4833 23.5194 50.2 24.7527 50.2C25.7527 50.2 26.7861 49.6167 27.8527 48.45C28.9194 47.25 29.8861 45.6833 30.7527 43.75C31.6194 41.8167 32.3027 39.75 32.8027 37.55C33.2027 35.7167 33.6194 32.7833 34.0527 28.75C33.1527 28.4167 32.0194 28.25 30.6527 28.25ZM52.2871 15.65C53.0538 15.65 53.6871 15.9167 54.1871 16.45C54.6871 16.9833 54.9371 17.6667 54.9371 18.5C54.9371 19.3333 54.6704 20.0167 54.1371 20.55C53.6038 21.05 52.9704 21.3 52.2371 21.3C51.5038 21.3 50.8704 21.05 50.3371 20.55C49.8371 20.0167 49.5871 19.3333 49.5871 18.5C49.5871 17.6667 49.8538 16.9833 50.3871 16.45C50.9204 15.9167 51.5538 15.65 52.2871 15.65ZM49.4371 26.45C50.8038 26.45 51.8371 26.9167 52.5371 27.85C53.2704 28.7833 53.6371 30.05 53.6371 31.65C53.6371 32.95 53.3538 35.2333 52.7871 38.5C52.4538 40.6 52.1871 42.3667 51.9871 43.8C51.8204 45.2 51.7371 46.5833 51.7371 47.95C51.7371 49.35 52.2538 50.05 53.2871 50.05C53.9204 50.05 54.5704 49.65 55.2371 48.85C55.9038 48.05 56.4704 46.8333 56.9371 45.2L58.3371 45.5C57.9371 47.3 57.2204 48.9333 56.1871 50.4C55.1538 51.8333 53.8038 52.55 52.1371 52.55C49.1371 52.55 47.6371 50.9833 47.6371 47.85C47.6371 46.55 47.7204 45.2833 47.8871 44.05C48.0538 42.8167 48.3038 41.2833 48.6371 39.45C48.9704 37.4167 49.2038 35.85 49.3371 34.75C49.5038 33.6167 49.5871 32.4333 49.5871 31.2C49.5871 30.6333 49.4704 30.1167 49.2371 29.65C49.0371 29.1833 48.6871 28.95 48.1871 28.95C47.5538 28.95 46.9038 29.35 46.2371 30.15C45.5704 30.95 45.0038 32.1667 44.5371 33.8L43.1371 33.5C43.4371 31.8667 44.1204 30.2833 45.1871 28.75C46.2538 27.2167 47.6704 26.45 49.4371 26.45ZM75.498 26.45C76.6647 26.45 77.8147 26.5333 78.948 26.7C80.1147 26.8333 81.0814 27.0333 81.848 27.3C81.6814 30.0333 81.248 35.5 80.548 43.7L79.898 51.3C79.498 56.0333 78.198 59.5833 75.998 61.95C73.798 64.35 70.8314 65.55 67.098 65.55C66.1314 65.55 65.0814 65.4167 63.948 65.15C62.8147 64.8833 61.8314 64.4333 60.998 63.8C60.1647 63.1667 59.7314 62.35 59.698 61.35C59.698 60.65 59.9147 60.05 60.348 59.55C60.8147 59.05 61.3814 58.8 62.048 58.8C62.6814 58.8 63.2147 59 63.648 59.4C64.0814 59.8 64.298 60.3667 64.298 61.1C64.298 61.5333 64.198 61.9667 63.998 62.4C64.298 62.8667 64.7814 63.2167 65.448 63.45C66.1147 63.6833 66.7814 63.8 67.448 63.8C69.8147 63.8 71.6147 62.9833 72.848 61.35C74.1147 59.75 74.9647 57.8167 75.398 55.55C75.8314 53.2833 76.198 50.35 76.498 46.75C76.698 44.2833 76.8814 42.4833 77.048 41.35H76.898C75.6314 45.7167 74.2314 48.6833 72.698 50.25C71.1647 51.7833 69.4814 52.55 67.648 52.55C65.4147 52.55 63.7314 51.6667 62.598 49.9C61.4647 48.1333 60.898 45.7833 60.898 42.85C60.898 39.8833 61.4314 37.1667 62.498 34.7C63.5647 32.2 65.198 30.2 67.398 28.7C69.598 27.2 72.298 26.45 75.498 26.45ZM74.698 28.25C72.4314 28.25 70.5647 28.9667 69.098 30.4C67.6647 31.8333 66.6314 33.6 65.998 35.7C65.398 37.7667 65.098 39.8667 65.098 42C65.098 44.5 65.3814 46.5 65.948 48C66.5147 49.4667 67.4314 50.2 68.698 50.2C70.1647 50.2 71.5814 49.0667 72.948 46.8C74.348 44.5 75.498 41.6833 76.398 38.35C77.298 34.9833 77.8314 31.8333 77.998 28.9C77.1314 28.4667 76.0314 28.25 74.698 28.25ZM94.377 15.65C95.1436 15.65 95.777 15.9167 96.277 16.45C96.777 16.9833 97.027 17.6667 97.027 18.5C97.027 19.3333 96.7603 20.0167 96.227 20.55C95.6936 21.05 95.0603 21.3 94.327 21.3C93.5936 21.3 92.9603 21.05 92.427 20.55C91.927 20.0167 91.677 19.3333 91.677 18.5C91.677 17.6667 91.9436 16.9833 92.477 16.45C93.0103 15.9167 93.6436 15.65 94.377 15.65ZM91.527 26.45C92.8936 26.45 93.927 26.9167 94.627 27.85C95.3603 28.7833 95.727 30.05 95.727 31.65C95.727 32.95 95.4436 35.2333 94.877 38.5C94.5436 40.6 94.277 42.3667 94.077 43.8C93.9103 45.2 93.827 46.5833 93.827 47.95C93.827 49.35 94.3436 50.05 95.377 50.05C96.0103 50.05 96.6603 49.65 97.327 48.85C97.9936 48.05 98.5603 46.8333 99.027 45.2L100.427 45.5C100.027 47.3 99.3103 48.9333 98.277 50.4C97.2436 51.8333 95.8936 52.55 94.227 52.55C91.227 52.55 89.727 50.9833 89.727 47.85C89.727 46.55 89.8103 45.2833 89.977 44.05C90.1436 42.8167 90.3936 41.2833 90.727 39.45C91.0603 37.4167 91.2936 35.85 91.427 34.75C91.5936 33.6167 91.677 32.4333 91.677 31.2C91.677 30.6333 91.5603 30.1167 91.327 29.65C91.127 29.1833 90.777 28.95 90.277 28.95C89.6436 28.95 88.9936 29.35 88.327 30.15C87.6603 30.95 87.0936 32.1667 86.627 33.8L85.227 33.5C85.527 31.8667 86.2103 30.2833 87.277 28.75C88.3436 27.2167 89.7603 26.45 91.527 26.45ZM111.038 27H118.988L118.838 28.9L110.838 29L110.488 32.2C109.755 38.5333 109.388 43.0167 109.388 45.65C109.388 46.95 109.538 48 109.838 48.8C110.138 49.6 110.771 50 111.738 50C113.471 50 115.038 48.8333 116.438 46.5L117.738 47.35C116.705 49.1167 115.621 50.4333 114.488 51.3C113.388 52.1333 112.071 52.55 110.538 52.55C108.705 52.55 107.371 52 106.538 50.9C105.738 49.8 105.338 48.3833 105.338 46.65C105.338 44.7167 105.455 42.1833 105.688 39.05C105.921 35.8833 106.238 32.55 106.638 29.05L102.188 29.1L102.338 27C104.338 27 105.955 26.4167 107.188 25.25C108.421 24.05 109.371 22.2833 110.038 19.95H111.938L111.038 27ZM135.751 26.45C138.017 26.45 140.251 26.7333 142.451 27.3C140.984 38.1667 140.251 44.8333 140.251 47.3C140.251 48.1667 140.334 48.85 140.501 49.35C140.667 49.8167 141.051 50.05 141.651 50.05C142.284 50.05 142.934 49.65 143.601 48.85C144.267 48.05 144.834 46.8333 145.301 45.2L146.701 45.5C146.534 46.4333 146.167 47.45 145.601 48.55C145.067 49.65 144.334 50.6 143.401 51.4C142.501 52.1667 141.434 52.55 140.201 52.55C137.734 52.55 136.501 51.05 136.501 48.05C136.501 46.5833 136.801 44.35 137.401 41.35H137.251C135.851 45.75 134.317 48.7167 132.651 50.25C130.984 51.7833 129.267 52.55 127.501 52.55C125.567 52.55 124.017 51.85 122.851 50.45C121.717 49.05 121.151 46.85 121.151 43.85C121.151 40.65 121.701 37.7333 122.801 35.1C123.901 32.4667 125.551 30.3667 127.751 28.8C129.951 27.2333 132.617 26.45 135.751 26.45ZM134.201 28.25C132.267 28.25 130.634 28.95 129.301 30.35C127.967 31.7167 126.967 33.5333 126.301 35.8C125.667 38.0333 125.351 40.4333 125.351 43C125.351 47.9 126.434 50.35 128.601 50.35C130.067 50.35 131.534 49.2 133.001 46.9C134.467 44.6 135.684 41.7667 136.651 38.4C137.617 35 138.101 31.8167 138.101 28.85C137.101 28.45 135.801 28.25 134.201 28.25ZM156.843 17.8C156.443 20.1333 156.193 21.7833 156.093 22.75C155.56 26.65 155.043 31.1833 154.543 36.35C154.077 41.4833 153.843 45.1833 153.843 47.45C153.843 48.2833 153.927 48.9333 154.093 49.4C154.26 49.8333 154.627 50.05 155.193 50.05C155.827 50.05 156.477 49.6667 157.143 48.9C157.81 48.1 158.377 46.8667 158.843 45.2L160.243 45.55C160.077 46.4833 159.727 47.5 159.193 48.6C158.66 49.6667 157.927 50.6 156.993 51.4C156.093 52.1667 155.027 52.55 153.793 52.55C152.393 52.55 151.377 52.1833 150.743 51.45C150.11 50.7167 149.793 49.6 149.793 48.1C149.793 45.9 150.077 41.85 150.643 35.95C151.243 30.05 151.86 24.7667 152.493 20.1L152.943 17.4L149.393 17.6L149.643 15.6C151.61 15.6 153.027 15.4833 153.893 15.25C154.76 15.0167 155.46 14.6833 155.993 14.25H157.393L156.843 17.8ZM185.338 26.45C187.305 26.45 189.022 26.9167 190.488 27.85C191.988 28.75 192.738 29.9167 192.738 31.35C192.738 32.05 192.538 32.6167 192.138 33.05C191.738 33.45 191.238 33.65 190.638 33.65C190.072 33.65 189.588 33.45 189.188 33.05C188.822 32.65 188.638 32.1833 188.638 31.65C188.638 31.0833 188.788 30.5667 189.088 30.1C188.888 29.5 188.455 29.0167 187.788 28.65C187.122 28.2833 186.255 28.1 185.188 28.1C184.022 28.1 182.955 28.4833 181.988 29.25C181.055 29.9833 180.588 30.9167 180.588 32.05C180.588 33.0167 181.022 33.8833 181.888 34.65C182.755 35.4167 184.088 36.3167 185.888 37.35C187.388 38.2167 188.605 39 189.538 39.7C190.472 40.3667 191.255 41.1667 191.888 42.1C192.555 43.0333 192.888 44.0833 192.888 45.25C192.888 46.65 192.488 47.9 191.688 49C190.922 50.1 189.822 50.9667 188.388 51.6C186.955 52.2333 185.322 52.55 183.488 52.55C181.322 52.55 179.438 52.0667 177.838 51.1C176.272 50.1333 175.488 48.8333 175.488 47.2C175.488 46.5 175.688 45.9167 176.088 45.45C176.522 44.9833 177.038 44.75 177.638 44.75C178.272 44.75 178.772 44.9667 179.138 45.4C179.505 45.8 179.688 46.2833 179.688 46.85C179.688 47.4167 179.538 47.9333 179.238 48.4C179.472 49.1 179.988 49.6667 180.788 50.1C181.588 50.5 182.455 50.7 183.388 50.7C185.155 50.7 186.488 50.3 187.388 49.5C188.322 48.6667 188.788 47.4833 188.788 45.95C188.788 44.85 188.322 43.8833 187.388 43.05C186.455 42.2167 185.038 41.25 183.138 40.15C181.005 38.9167 179.388 37.8 178.288 36.8C177.222 35.8 176.688 34.6 176.688 33.2C176.688 32 177.055 30.8833 177.788 29.85C178.522 28.8167 179.538 28 180.838 27.4C182.172 26.7667 183.672 26.45 185.338 26.45ZM205.325 27H213.275L213.125 28.9L205.125 29L204.775 32.2C204.042 38.5333 203.675 43.0167 203.675 45.65C203.675 46.95 203.825 48 204.125 48.8C204.425 49.6 205.058 50 206.025 50C207.758 50 209.325 48.8333 210.725 46.5L212.025 47.35C210.992 49.1167 209.908 50.4333 208.775 51.3C207.675 52.1333 206.358 52.55 204.825 52.55C202.992 52.55 201.658 52 200.825 50.9C200.025 49.8 199.625 48.3833 199.625 46.65C199.625 44.7167 199.742 42.1833 199.975 39.05C200.208 35.8833 200.525 32.55 200.925 29.05L196.475 29.1L196.625 27C198.625 27 200.242 26.4167 201.475 25.25C202.708 24.05 203.658 22.2833 204.325 19.95H206.225L205.325 27ZM227.888 26.45C229.688 26.45 231.305 26.8833 232.738 27.75C234.205 28.6167 235.338 29.8833 236.138 31.55C236.971 33.1833 237.388 35.1333 237.388 37.4C237.388 40.1333 236.888 42.65 235.888 44.95C234.921 47.25 233.505 49.1 231.638 50.5C229.805 51.8667 227.638 52.55 225.138 52.55C221.971 52.55 219.571 51.5167 217.938 49.45C216.338 47.35 215.538 44.65 215.538 41.35C215.538 38.6167 216.038 36.1167 217.038 33.85C218.038 31.5833 219.471 29.7833 221.338 28.45C223.205 27.1167 225.388 26.45 227.888 26.45ZM227.088 28.3C225.621 28.3 224.338 28.8333 223.238 29.9C222.171 30.9333 221.355 32.3667 220.788 34.2C220.221 36 219.938 38.0167 219.938 40.25C219.938 43.0167 220.388 45.45 221.288 47.55C222.188 49.6167 223.655 50.65 225.688 50.65C227.388 50.65 228.771 50 229.838 48.7C230.938 47.4 231.738 45.8 232.238 43.9C232.738 42 232.988 40.15 232.988 38.35C232.988 35.55 232.538 33.1833 231.638 31.25C230.771 29.2833 229.255 28.3 227.088 28.3ZM259.012 26.45C260.045 26.45 260.879 26.7167 261.512 27.25C262.179 27.75 262.512 28.45 262.512 29.35C262.512 29.9833 262.295 30.55 261.862 31.05C261.429 31.5167 260.879 31.75 260.212 31.75C259.612 31.75 259.095 31.5667 258.662 31.2C258.229 30.8333 257.979 30.3167 257.912 29.65C257.779 29.6167 257.595 29.6 257.362 29.6C255.962 29.6 254.595 30.7167 253.262 32.95C251.929 35.1833 250.845 37.9 250.012 41.1C249.179 44.3 248.762 47.2167 248.762 49.85C248.762 50.15 248.795 50.8667 248.862 52H244.712C244.679 51.7 244.662 51.2667 244.662 50.7C244.662 48.6667 244.929 45.25 245.462 40.45L246.112 34.65C246.312 32.9167 246.412 31.7667 246.412 31.2C246.412 30.5 246.312 29.95 246.112 29.55C245.945 29.15 245.595 28.95 245.062 28.95C244.429 28.95 243.779 29.35 243.112 30.15C242.445 30.95 241.879 32.1667 241.412 33.8L240.012 33.5C240.179 32.5667 240.529 31.55 241.062 30.45C241.629 29.35 242.362 28.4167 243.262 27.65C244.195 26.85 245.279 26.45 246.512 26.45C247.812 26.45 248.745 26.8667 249.312 27.7C249.879 28.5333 250.162 29.7333 250.162 31.3C250.162 32.8333 249.912 34.85 249.412 37.35H249.562C250.929 33.3167 252.395 30.5 253.962 28.9C255.529 27.2667 257.212 26.45 259.012 26.45ZM282.351 26.45C283.751 26.45 284.767 27.0667 285.401 28.3C286.034 29.5333 286.351 31.05 286.351 32.85C286.351 35.8833 285.751 39.0667 284.551 42.4C283.351 45.7 281.734 49.1833 279.701 52.85C277.301 57.25 275.017 60.4667 272.851 62.5C270.684 64.5333 268.567 65.55 266.501 65.55C265.301 65.55 264.317 65.25 263.551 64.65C262.817 64.05 262.451 63.3 262.451 62.4C262.451 61.7 262.667 61.1333 263.101 60.7C263.534 60.3 264.001 60.1 264.501 60.1C265.201 60.1 265.734 60.3167 266.101 60.75C266.501 61.2167 266.684 61.8667 266.651 62.7C267.117 62.9333 267.484 63.05 267.751 63.05C269.017 63.1167 270.367 62.3167 271.801 60.65C273.267 58.9833 274.467 57.35 275.401 55.75C274.801 51.65 273.967 47.5167 272.901 43.35C271.834 39.1833 270.634 35.4833 269.301 32.25C268.901 31.3833 268.551 30.75 268.251 30.35C267.951 29.9167 267.534 29.7 267.001 29.7C266.434 29.7 265.967 30.05 265.601 30.75C265.267 31.45 265.101 32.4 265.101 33.6C265.101 34.1667 265.117 34.6 265.151 34.9L263.551 35.1C263.517 34.7667 263.501 34.2667 263.501 33.6C263.501 31.6333 263.851 29.95 264.551 28.55C265.284 27.15 266.467 26.45 268.101 26.45C269.601 26.45 270.767 26.9833 271.601 28.05C272.434 29.0833 273.151 30.4333 273.751 32.1C274.417 33.9 275.017 35.85 275.551 37.95C276.084 40.0167 276.717 42.6833 277.451 45.95C277.651 46.9167 277.901 48.6167 278.201 51.05H278.301C279.901 48.25 281.251 45.3167 282.351 42.25C283.451 39.15 284.001 36.35 284.001 33.85C284.001 33.05 283.917 32.3333 283.751 31.7C283.617 31.0667 283.451 30.6 283.251 30.3C282.951 30.5 282.534 30.6 282.001 30.6C281.401 30.6 280.917 30.4167 280.551 30.05C280.184 29.65 280.001 29.1833 280.001 28.65C280.001 27.95 280.234 27.4167 280.701 27.05C281.167 26.65 281.717 26.45 282.351 26.45ZM298.684 27H306.634L306.484 28.9L298.484 29L298.134 32.2C297.401 38.5333 297.034 43.0167 297.034 45.65C297.034 46.95 297.184 48 297.484 48.8C297.784 49.6 298.418 50 299.384 50C301.118 50 302.684 48.8333 304.084 46.5L305.384 47.35C304.351 49.1167 303.268 50.4333 302.134 51.3C301.034 52.1333 299.718 52.55 298.184 52.55C296.351 52.55 295.018 52 294.184 50.9C293.384 49.8 292.984 48.3833 292.984 46.65C292.984 44.7167 293.101 42.1833 293.334 39.05C293.568 35.8833 293.884 32.55 294.284 29.05L289.834 29.1L289.984 27C291.984 27 293.601 26.4167 294.834 25.25C296.068 24.05 297.018 22.2833 297.684 19.95H299.584L298.684 27ZM321.047 26.45C323.047 26.45 324.714 26.9167 326.047 27.85C327.381 28.7833 328.047 30.2333 328.047 32.2C328.047 34.6667 326.564 36.5833 323.597 37.95C320.631 39.3167 317.197 40.2167 313.297 40.65C313.297 43.7833 313.764 46.1333 314.697 47.7C315.631 49.2667 317.064 50.05 318.997 50.05C320.531 50.05 322.014 49.55 323.447 48.55C324.881 47.5167 326.131 46 327.197 44L328.847 44.95C327.447 47.5833 325.881 49.5167 324.147 50.75C322.414 51.95 320.414 52.55 318.147 52.55C315.081 52.55 312.764 51.6 311.197 49.7C309.664 47.7667 308.897 45.1167 308.897 41.75C308.897 39.05 309.347 36.55 310.247 34.25C311.181 31.9167 312.564 30.0333 314.397 28.6C316.231 27.1667 318.447 26.45 321.047 26.45ZM320.347 28.15C318.214 28.15 316.564 29.1833 315.397 31.25C314.231 33.3167 313.547 35.85 313.347 38.85C316.247 38.45 318.731 37.65 320.797 36.45C322.864 35.25 323.897 33.75 323.897 31.95C323.897 30.85 323.581 29.95 322.947 29.25C322.347 28.5167 321.481 28.15 320.347 28.15ZM340.925 17.8C340.525 20.1333 340.275 21.7833 340.175 22.75C339.642 26.65 339.125 31.1833 338.625 36.35C338.159 41.4833 337.925 45.1833 337.925 47.45C337.925 48.2833 338.009 48.9333 338.175 49.4C338.342 49.8333 338.709 50.05 339.275 50.05C339.909 50.05 340.559 49.6667 341.225 48.9C341.892 48.1 342.459 46.8667 342.925 45.2L344.325 45.55C344.159 46.4833 343.809 47.5 343.275 48.6C342.742 49.6667 342.009 50.6 341.075 51.4C340.175 52.1667 339.109 52.55 337.875 52.55C336.475 52.55 335.459 52.1833 334.825 51.45C334.192 50.7167 333.875 49.6 333.875 48.1C333.875 45.9 334.159 41.85 334.725 35.95C335.325 30.05 335.942 24.7667 336.575 20.1L337.025 17.4L333.475 17.6L333.725 15.6C335.692 15.6 337.109 15.4833 337.975 15.25C338.842 15.0167 339.542 14.6833 340.075 14.25H341.475L340.925 17.8ZM355.086 17.8C354.686 20.1333 354.436 21.7833 354.336 22.75C353.802 26.65 353.286 31.1833 352.786 36.35C352.319 41.4833 352.086 45.1833 352.086 47.45C352.086 48.2833 352.169 48.9333 352.336 49.4C352.502 49.8333 352.869 50.05 353.436 50.05C354.069 50.05 354.719 49.6667 355.386 48.9C356.052 48.1 356.619 46.8667 357.086 45.2L358.486 45.55C358.319 46.4833 357.969 47.5 357.436 48.6C356.902 49.6667 356.169 50.6 355.236 51.4C354.336 52.1667 353.269 52.55 352.036 52.55C350.636 52.55 349.619 52.1833 348.986 51.45C348.352 50.7167 348.036 49.6 348.036 48.1C348.036 45.9 348.319 41.85 348.886 35.95C349.486 30.05 350.102 24.7667 350.736 20.1L351.186 17.4L347.636 17.6L347.886 15.6C349.852 15.6 351.269 15.4833 352.136 15.25C353.002 15.0167 353.702 14.6833 354.236 14.25H355.636L355.086 17.8ZM368.596 15.65C369.362 15.65 369.996 15.9167 370.496 16.45C370.996 16.9833 371.246 17.6667 371.246 18.5C371.246 19.3333 370.979 20.0167 370.446 20.55C369.912 21.05 369.279 21.3 368.546 21.3C367.812 21.3 367.179 21.05 366.646 20.55C366.146 20.0167 365.896 19.3333 365.896 18.5C365.896 17.6667 366.162 16.9833 366.696 16.45C367.229 15.9167 367.862 15.65 368.596 15.65ZM365.746 26.45C367.112 26.45 368.146 26.9167 368.846 27.85C369.579 28.7833 369.946 30.05 369.946 31.65C369.946 32.95 369.662 35.2333 369.096 38.5C368.762 40.6 368.496 42.3667 368.296 43.8C368.129 45.2 368.046 46.5833 368.046 47.95C368.046 49.35 368.562 50.05 369.596 50.05C370.229 50.05 370.879 49.65 371.546 48.85C372.212 48.05 372.779 46.8333 373.246 45.2L374.646 45.5C374.246 47.3 373.529 48.9333 372.496 50.4C371.462 51.8333 370.112 52.55 368.446 52.55C365.446 52.55 363.946 50.9833 363.946 47.85C363.946 46.55 364.029 45.2833 364.196 44.05C364.362 42.8167 364.612 41.2833 364.946 39.45C365.279 37.4167 365.512 35.85 365.646 34.75C365.812 33.6167 365.896 32.4333 365.896 31.2C365.896 30.6333 365.779 30.1167 365.546 29.65C365.346 29.1833 364.996 28.95 364.496 28.95C363.862 28.95 363.212 29.35 362.546 30.15C361.879 30.95 361.312 32.1667 360.846 33.8L359.446 33.5C359.746 31.8667 360.429 30.2833 361.496 28.75C362.562 27.2167 363.979 26.45 365.746 26.45ZM395.107 26.45C396.973 26.45 398.34 27.05 399.207 28.25C400.107 29.45 400.557 31.0167 400.557 32.95C400.557 35.1833 400.24 38.3833 399.607 42.55C399.24 45.1833 399.057 46.9167 399.057 47.75C399.057 48.4833 399.14 49.05 399.307 49.45C399.507 49.85 399.873 50.05 400.407 50.05C401.04 50.05 401.69 49.6667 402.357 48.9C403.023 48.1 403.59 46.8667 404.057 45.2L405.457 45.55C405.29 46.4833 404.923 47.5 404.357 48.6C403.823 49.6667 403.09 50.6 402.157 51.4C401.257 52.1667 400.19 52.55 398.957 52.55C397.457 52.55 396.407 52.1667 395.807 51.4C395.207 50.6 394.907 49.3833 394.907 47.75C394.907 46.5167 395.123 44.3167 395.557 41.15C396.157 37.0833 396.457 33.9833 396.457 31.85C396.457 31.0833 396.273 30.3833 395.907 29.75C395.573 29.1167 394.973 28.8 394.107 28.8C392.64 28.8 391.14 29.9167 389.607 32.15C388.073 34.35 386.79 37.0833 385.757 40.35C384.757 43.5833 384.257 46.5833 384.257 49.35C384.257 49.9833 384.29 50.8667 384.357 52H380.157C380.123 51.7 380.107 51.2667 380.107 50.7C380.107 49.9 380.173 48.7833 380.307 47.35C380.473 45.9167 380.707 44.0333 381.007 41.7C381.007 41.5 381.04 41.1667 381.107 40.7C381.14 40.2667 381.19 39.8167 381.257 39.35C381.323 38.8833 381.373 38.4167 381.407 37.95C381.64 35.9167 381.807 34.4333 381.907 33.5C382.007 32.5667 382.057 31.8 382.057 31.2C382.057 30.5 381.957 29.95 381.757 29.55C381.59 29.15 381.24 28.95 380.707 28.95C380.073 28.95 379.423 29.35 378.757 30.15C378.09 30.95 377.523 32.1667 377.057 33.8L375.657 33.5C375.823 32.5667 376.173 31.55 376.707 30.45C377.273 29.35 378.007 28.4167 378.907 27.65C379.84 26.85 380.923 26.45 382.157 26.45C384.657 26.45 385.907 28.1667 385.907 31.6C385.907 32.5667 385.807 33.6333 385.607 34.8C385.44 35.9333 385.273 36.95 385.107 37.85H385.257C386.857 33.5833 388.44 30.6167 390.007 28.95C391.607 27.2833 393.307 26.45 395.107 26.45ZM422.568 26.45C423.735 26.45 424.885 26.5333 426.018 26.7C427.185 26.8333 428.152 27.0333 428.918 27.3C428.752 30.0333 428.318 35.5 427.618 43.7L426.968 51.3C426.568 56.0333 425.268 59.5833 423.068 61.95C420.868 64.35 417.902 65.55 414.168 65.55C413.202 65.55 412.152 65.4167 411.018 65.15C409.885 64.8833 408.902 64.4333 408.068 63.8C407.235 63.1667 406.802 62.35 406.768 61.35C406.768 60.65 406.985 60.05 407.418 59.55C407.885 59.05 408.452 58.8 409.118 58.8C409.752 58.8 410.285 59 410.718 59.4C411.152 59.8 411.368 60.3667 411.368 61.1C411.368 61.5333 411.268 61.9667 411.068 62.4C411.368 62.8667 411.852 63.2167 412.518 63.45C413.185 63.6833 413.852 63.8 414.518 63.8C416.885 63.8 418.685 62.9833 419.918 61.35C421.185 59.75 422.035 57.8167 422.468 55.55C422.902 53.2833 423.268 50.35 423.568 46.75C423.768 44.2833 423.952 42.4833 424.118 41.35H423.968C422.702 45.7167 421.302 48.6833 419.768 50.25C418.235 51.7833 416.552 52.55 414.718 52.55C412.485 52.55 410.802 51.6667 409.668 49.9C408.535 48.1333 407.968 45.7833 407.968 42.85C407.968 39.8833 408.502 37.1667 409.568 34.7C410.635 32.2 412.268 30.2 414.468 28.7C416.668 27.2 419.368 26.45 422.568 26.45ZM421.768 28.25C419.502 28.25 417.635 28.9667 416.168 30.4C414.735 31.8333 413.702 33.6 413.068 35.7C412.468 37.7667 412.168 39.8667 412.168 42C412.168 44.5 412.452 46.5 413.018 48C413.585 49.4667 414.502 50.2 415.768 50.2C417.235 50.2 418.652 49.0667 420.018 46.8C421.418 44.5 422.568 41.6833 423.468 38.35C424.368 34.9833 424.902 31.8333 425.068 28.9C424.202 28.4667 423.102 28.25 421.768 28.25Z" transform="translate(-3 131)" fill="white"/>
<path d="M25.824 26.76C33.376 26.76 38.848 27.24 42.24 28.2C45.696 29.096 48.16 30.184 49.632 31.464C52.896 34.28 54.528 38.6 54.528 44.424C54.528 48.776 52.192 52.904 47.52 56.808C53.472 59.816 56.448 65.416 56.448 73.608C56.448 80.008 54.336 84.776 50.112 87.912C45.952 90.984 39.712 92.68 31.392 93H4.032L3.072 85.032C3.904 83.944 5.664 82.888 8.352 81.864V37.992C5.728 37.032 3.968 35.944 3.072 34.728L4.032 26.76H25.824ZM30.72 64.296H22.176V82.536H28.8C33.152 82.536 36.448 81.896 38.688 80.616C40.928 79.336 42.048 77.032 42.048 73.704C42.048 70.376 41.152 67.976 39.36 66.504C37.632 65.032 34.752 64.296 30.72 64.296ZM27.168 37.224H22.176V53.832H30.048C33.312 53.832 35.808 53 37.536 51.336C39.264 49.672 40.128 47.656 40.128 45.288C40.128 42.856 39.52 41.032 38.304 39.816C37.088 38.6 35.68 37.864 34.08 37.608C32.48 37.352 30.176 37.224 27.168 37.224ZM62.898 45C66.482 44.168 69.81 43.752 72.882 43.752C75.954 43.752 78.546 43.848 80.658 44.04V82.344C83.154 83.304 84.914 84.392 85.938 85.608L84.978 93H62.898L61.938 85.608C62.834 84.392 64.594 83.304 67.218 82.344V55.656C64.978 54.888 63.218 53.8 61.938 52.392L62.898 45ZM73.746 38.376C68.434 38.376 65.778 35.976 65.778 31.176C65.778 26.312 68.434 23.88 73.746 23.88C79.122 23.88 81.81 26.312 81.81 31.176C81.81 35.976 79.122 38.376 73.746 38.376ZM111.857 103.176C117.553 103.176 120.401 99.752 120.401 92.904V88.68C117.265 90.6 113.329 91.56 108.593 91.56C102.577 91.56 97.9373 89.8 94.6733 86.28C91.4733 82.76 89.8733 76.904 89.8733 68.712C89.8733 52.392 97.3613 44.232 112.337 44.232C116.177 44.232 119.761 45.064 123.089 46.728C123.729 45.576 124.689 45 125.969 45H133.841V92.232C133.841 99.272 132.081 104.488 128.561 107.88C125.105 111.272 119.729 112.968 112.433 112.968C108.593 112.968 104.625 112.52 100.529 111.624C96.4333 110.728 93.3293 109.608 91.2173 108.264C91.1533 107.688 91.1213 107.112 91.1213 106.536C91.1213 103.016 91.9533 99.624 93.6172 96.36H102.065C102.769 97.704 103.281 99.496 103.601 101.736C106.033 102.696 108.785 103.176 111.857 103.176ZM103.121 68.136C103.121 72.936 103.761 76.296 105.041 78.216C106.385 80.136 108.625 81.096 111.761 81.096C114.961 81.096 117.841 80.2 120.401 78.408V55.656C117.841 54.568 115.057 54.024 112.049 54.024C106.097 54.024 103.121 58.728 103.121 68.136Z" transform="translate(-3 18)" fill="white"/>
<path d="M54.528 26.856V40.584L48.48 41.352C47.648 40.712 46.848 39.368 46.08 37.32H34.56V81.864C37.12 82.888 38.88 83.944 39.84 85.032L38.88 93H16.416L15.456 85.032C16.288 83.944 18.048 82.888 20.736 81.864V37.32H9.216C8.448 39.368 7.648 40.712 6.816 41.352L0.768 40.584V26.856H54.528ZM80.8485 93.768C73.1685 93.768 67.3765 91.72 63.4725 87.624C59.6325 83.528 57.7125 77.576 57.7125 69.768C57.7125 65.032 58.3845 60.968 59.7285 57.576C61.0725 54.12 62.8965 51.464 65.2005 49.608C69.6805 46.024 74.8965 44.232 80.8485 44.232C86.8005 44.232 91.3445 45.768 94.4805 48.84C97.6805 51.848 99.2805 57.288 99.2805 65.16C99.2805 69.768 97.0085 72.072 92.4645 72.072H71.6325C71.8885 76.104 72.9125 78.952 74.7045 80.616C76.5605 82.28 79.4725 83.112 83.4405 83.112C85.6165 83.112 87.6965 82.856 89.6805 82.344C91.6645 81.832 93.1045 81.32 94.0005 80.808L95.3445 80.04L98.2245 87.72C97.8405 88.168 97.2645 88.744 96.4965 89.448C95.7925 90.088 93.9365 90.984 90.9285 92.136C87.9845 93.224 84.6245 93.768 80.8485 93.768ZM86.8965 63.528C87.0245 62.632 87.0885 61.544 87.0885 60.264C87.0885 58.984 86.5765 57.64 85.5525 56.232C84.5285 54.76 82.7365 54.024 80.1765 54.024C77.6805 54.024 75.7605 54.792 74.4165 56.328C73.0725 57.864 72.1765 60.456 71.7285 64.104L86.8965 63.528ZM105.175 45C108.695 44.232 111.863 43.848 114.679 43.848C117.495 43.848 119.831 43.912 121.687 44.04V48.84C123.287 47.496 125.399 46.408 128.023 45.576C130.711 44.68 133.271 44.232 135.703 44.232C141.975 44.232 146.359 45.704 148.855 48.648C151.415 51.592 152.695 56.68 152.695 63.912V82.344C155.191 83.304 156.951 84.392 157.975 85.608L157.015 93H134.935L133.975 85.608C134.871 84.392 136.631 83.304 139.255 82.344V63.336C139.255 59.88 138.679 57.576 137.527 56.424C136.439 55.208 134.455 54.6 131.575 54.6C128.695 54.6 125.815 55.624 122.935 57.672V82.344C125.431 83.304 127.191 84.392 128.215 85.608L127.255 93H105.175L104.215 85.608C105.111 84.392 106.871 83.304 109.495 82.344V55.656C107.255 54.888 105.495 53.8 104.215 52.392L105.175 45ZM178.781 32.904V45H192.509V53.064H178.781V77.352C178.781 79.4 179.069 80.904 179.645 81.864C180.221 82.76 181.597 83.208 183.773 83.208C185.949 83.208 188.285 82.728 190.781 81.768L193.661 89.256C188.733 91.752 183.677 93 178.493 93C173.373 93 169.885 91.912 168.029 89.736C166.237 87.496 165.341 84.264 165.341 80.04V53.064H161.021L159.965 47.208C160.989 45.992 163.101 44.776 166.301 43.56C167.069 38.312 168.893 34.76 171.773 32.904H178.781Z" transform="translate(243 18)" fill="white"/>
<path d="M97.595 105.681L53.4177 21.1454L61.6877 5.3201C62.6477 3.48275 61.8271 1.2684 59.8541 0.373895C57.8814 -0.520173 55.5038 0.244034 54.5434 2.0816L48.9994 12.691L43.4554 2.08203C42.4954 0.244684 40.1176 -0.519522 38.1446 0.374328C36.1719 1.2684 35.3511 3.48297 36.3111 5.32053L44.5811 21.1458L0.404194 105.681C-0.876066 108.131 1.03967 111 3.97612 111C4.76406 111 92.6544 111 94.0231 111C96.9489 111 98.8802 108.14 97.595 105.681ZM58.2692 103.6H39.7301V87.5669C39.7301 82.8065 43.8883 78.9337 48.9996 78.9337C54.1109 78.9337 58.2692 82.8065 58.2692 87.5669V103.6ZM66.2145 103.6V87.5669C66.2145 78.7262 58.4919 71.5338 48.9996 71.5338C39.5073 71.5338 31.7848 78.7262 31.7848 87.5669V103.6H10.3281L48.9996 29.6002L87.6714 103.6H66.2145Z" transform="translate(145)" fill="white"/>
</svg>
